<mxfile host="app.diagrams.net" modified="2022-06-05T04:48:39.672Z" agent="5.0 (Macintosh)" etag="a8mF2aKm_kuf_-4wKo0y" version="17.0.0" type="github">
  <diagram id="bdNYrvAYxolotcpvOu4s" name="Page-1">
    <mxGraphModel dx="1186" dy="790" grid="1" gridSize="10" guides="1" tooltips="1" connect="1" arrows="1" fold="1" page="1" pageScale="1" pageWidth="850" pageHeight="1100" math="0" shadow="0">
      <root>
        <mxCell id="0" />
        <mxCell id="1" parent="0" />
        <mxCell id="CPRjn7crAsUhfM99n91P-1" value="Users" style="shape=umlActor;verticalLabelPosition=bottom;verticalAlign=top;html=1;outlineConnect=0;" vertex="1" parent="1">
          <mxGeometry x="140" y="190" width="30" height="60" as="geometry" />
        </mxCell>
        <mxCell id="CPRjn7crAsUhfM99n91P-2" value="" style="shape=cylinder3;whiteSpace=wrap;html=1;boundedLbl=1;backgroundOutline=1;size=15;" vertex="1" parent="1">
          <mxGeometry x="140" y="330" width="60" height="80" as="geometry" />
        </mxCell>
        <mxCell id="CPRjn7crAsUhfM99n91P-3" value="Enter username and password" style="ellipse;whiteSpace=wrap;html=1;" vertex="1" parent="1">
          <mxGeometry x="300" y="70" width="120" height="80" as="geometry" />
        </mxCell>
        <mxCell id="CPRjn7crAsUhfM99n91P-4" value="User authentication" style="ellipse;whiteSpace=wrap;html=1;" vertex="1" parent="1">
          <mxGeometry x="300" y="170" width="120" height="80" as="geometry" />
        </mxCell>
        <mxCell id="CPRjn7crAsUhfM99n91P-5" value="Show generic error message" style="ellipse;whiteSpace=wrap;html=1;" vertex="1" parent="1">
          <mxGeometry x="300" y="280" width="120" height="80" as="geometry" />
        </mxCell>
        <mxCell id="CPRjn7crAsUhfM99n91P-6" value="Lock account after N failed login attemps" style="ellipse;whiteSpace=wrap;html=1;" vertex="1" parent="1">
          <mxGeometry x="300" y="380" width="120" height="80" as="geometry" />
        </mxCell>
        <mxCell id="CPRjn7crAsUhfM99n91P-7" value="Validate password minimum length and complexity " style="ellipse;whiteSpace=wrap;html=1;" vertex="1" parent="1">
          <mxGeometry x="300" y="470" width="120" height="80" as="geometry" />
        </mxCell>
        <mxCell id="CPRjn7crAsUhfM99n91P-8" value="" style="endArrow=classic;html=1;rounded=0;entryX=0;entryY=0.625;entryDx=0;entryDy=0;entryPerimeter=0;" edge="1" parent="1" source="CPRjn7crAsUhfM99n91P-1" target="CPRjn7crAsUhfM99n91P-3">
          <mxGeometry width="50" height="50" relative="1" as="geometry">
            <mxPoint x="400" y="440" as="sourcePoint" />
            <mxPoint x="450" y="390" as="targetPoint" />
          </mxGeometry>
        </mxCell>
        <mxCell id="CPRjn7crAsUhfM99n91P-9" value="" style="endArrow=classic;html=1;rounded=0;" edge="1" parent="1" target="CPRjn7crAsUhfM99n91P-4">
          <mxGeometry width="50" height="50" relative="1" as="geometry">
            <mxPoint x="200" y="339.65517241379314" as="sourcePoint" />
            <mxPoint x="330" y="250" as="targetPoint" />
          </mxGeometry>
        </mxCell>
        <mxCell id="CPRjn7crAsUhfM99n91P-10" value="" style="endArrow=classic;html=1;rounded=0;exitX=1;exitY=0;exitDx=0;exitDy=15;exitPerimeter=0;entryX=0;entryY=0.5;entryDx=0;entryDy=0;" edge="1" parent="1" source="CPRjn7crAsUhfM99n91P-2" target="CPRjn7crAsUhfM99n91P-5">
          <mxGeometry width="50" height="50" relative="1" as="geometry">
            <mxPoint x="200" y="380" as="sourcePoint" />
            <mxPoint x="250" y="330" as="targetPoint" />
          </mxGeometry>
        </mxCell>
        <mxCell id="CPRjn7crAsUhfM99n91P-11" value="" style="endArrow=classic;html=1;rounded=0;exitX=1;exitY=0;exitDx=0;exitDy=15;exitPerimeter=0;entryX=0.008;entryY=0.413;entryDx=0;entryDy=0;entryPerimeter=0;" edge="1" parent="1" source="CPRjn7crAsUhfM99n91P-2" target="CPRjn7crAsUhfM99n91P-6">
          <mxGeometry width="50" height="50" relative="1" as="geometry">
            <mxPoint x="210" y="355" as="sourcePoint" />
            <mxPoint x="310" y="330" as="targetPoint" />
          </mxGeometry>
        </mxCell>
        <mxCell id="CPRjn7crAsUhfM99n91P-12" value="" style="endArrow=classic;html=1;rounded=0;exitX=1;exitY=0;exitDx=0;exitDy=15;exitPerimeter=0;entryX=-0.008;entryY=0.325;entryDx=0;entryDy=0;entryPerimeter=0;" edge="1" parent="1" source="CPRjn7crAsUhfM99n91P-2" target="CPRjn7crAsUhfM99n91P-7">
          <mxGeometry width="50" height="50" relative="1" as="geometry">
            <mxPoint x="210" y="355" as="sourcePoint" />
            <mxPoint x="300" y="490" as="targetPoint" />
          </mxGeometry>
        </mxCell>
        <mxCell id="CPRjn7crAsUhfM99n91P-13" value="Application/Server" style="text;html=1;strokeColor=none;fillColor=none;align=center;verticalAlign=middle;whiteSpace=wrap;rounded=0;" vertex="1" parent="1">
          <mxGeometry x="100" y="420" width="100" height="30" as="geometry" />
        </mxCell>
      </root>
    </mxGraphModel>
  </diagram>
</mxfile>
